#tb 0: 1/1000
0,          0,          0,        0,    61740, 5c69f80da667bfd20394995e93e4cd2b
0,         33,         33,        0,    61740, 13363cd8e52ca8c1053db1c84c111bc9
0,         66,         66,        0,    61740, 108976afdf99f59276d6f89879e3bdc3
0,        100,        100,        0,    61740, 770ce25985e6b479d52a9185876cfe83
0,        133,        133,        0,    61740, eba7cbb3c91989aa4c13487ed01675b5
0,        166,        166,        0,    61740, f391c30a47c33a250dd20cb12f0a6e01
0,        200,        200,        0,    61740, c38e12de302177d19dd744a3ea227e90
0,        233,        233,        0,    61740, 8c9370439a0b7289919c6ee68e00570f
0,        266,        266,        0,    61740, ac3748c4b99c4f1aba7430ae12c19cfd
0,        300,        300,        0,    61740, e5228dc84f7933ccc9306907d737ad3c
